HIERARCHY
ROOT Hips
{
	OFFSET 0.000000 0.000000 0.000000
	CHANNELS 6 Xposition Yposition Zposition Zrotation Yrotation Xrotation 
	JOINT LHipJoint
	{
		OFFSET 0.000000 0.000000 0.000000
		CHANNELS 3 Zrotation Yrotation Xrotation
		JOINT LeftUpLeg
		{
			OFFSET 1.363060 -1.794630 0.839290
			CHANNELS 3 Zrotation Yrotation Xrotation
			JOINT LeftLeg
			{
				OFFSET 2.448110 -6.726130 0.000000
				CHANNELS 3 Zrotation Yrotation Xrotation
				JOINT LeftFoot
				{
					OFFSET 2.562200 -7.039590 0.000000
					CHANNELS 3 Zrotation Yrotation Xrotation
					JOINT LeftToeBase
					{
						OFFSET 0.157640 -0.433110 2.322550
						CHANNELS 3 Zrotation Yrotation Xrotation
						End Site
						{
							OFFSET 0.000000 0.000000 0.000000
						}
					}
				}
			}
		}
	}
	JOINT RHipJoint
	{
		OFFSET 0.000000 0.000000 0.000000
		CHANNELS 3 Zrotation Yrotation Xrotation
		JOINT RightUpLeg
		{
			OFFSET -1.305520 -1.794630 0.839290
			CHANNELS 3 Zrotation Yrotation Xrotation
			JOINT RightLeg
			{
				OFFSET -2.542530 -6.985550 0.000000
				CHANNELS 3 Zrotation Yrotation Xrotation
				JOINT RightFoot
				{
					OFFSET -2.568260 -7.056230 0.000000
					CHANNELS 3 Zrotation Yrotation Xrotation
					JOINT RightToeBase
					{
						OFFSET -0.164730 -0.452590 2.363150
						CHANNELS 3 Zrotation Yrotation Xrotation
						End Site
						{
							OFFSET 0.000000 0.000000 0.000000
						}
					}
				}
			}
		}
	}
	JOINT LowerBack
	{
		OFFSET 0.000000 0.000000 0.000000
		CHANNELS 3 Zrotation Yrotation Xrotation
		JOINT Spine
		{
			OFFSET 0.028270 2.035590 -0.193380
			CHANNELS 3 Zrotation Yrotation Xrotation
			JOINT Spine1
			{
				OFFSET 0.056720 2.048850 -0.042750
				CHANNELS 3 Zrotation Yrotation Xrotation
				JOINT Neck
				{
					OFFSET 0.000000 0.000000 0.000000
					CHANNELS 3 Zrotation Yrotation Xrotation
					JOINT Neck1
					{
						OFFSET -0.054170 1.746240 0.172020
						CHANNELS 3 Zrotation Yrotation Xrotation
						JOINT Head
						{
							OFFSET 0.104070 1.761360 -0.123970
							CHANNELS 3 Zrotation Yrotation Xrotation
							End Site
							{
								OFFSET 0.000000 0.000000 0.000000
							}
						}
					}
				}
				JOINT LeftShoulder
				{
					OFFSET 0.000000 0.000000 0.000000
					CHANNELS 3 Zrotation Yrotation Xrotation
					JOINT LeftArm
					{
						OFFSET 3.362410 1.200890 -0.311210
						CHANNELS 3 Zrotation Yrotation Xrotation
						JOINT LeftForeArm
						{
							OFFSET 4.983000 -0.000000 -0.000000
							CHANNELS 3 Zrotation Yrotation Xrotation
							JOINT LeftHand
							{
								OFFSET 3.483560 -0.000000 -0.000000
								CHANNELS 3 Zrotation Yrotation Xrotation
								JOINT LeftFingerBase
								{
									OFFSET 0.000000 0.000000 0.000000
									CHANNELS 3 Zrotation Yrotation Xrotation
									JOINT LeftHandIndex1
									{
										OFFSET 0.715260 -0.000000 -0.000000
										CHANNELS 3 Zrotation Yrotation Xrotation
										End Site
										{
											OFFSET 0.000000 0.000000 0.000000
										}
									}
								}
								JOINT LThumb
								{
									OFFSET 0.000000 0.000000 0.000000
									CHANNELS 3 Zrotation Yrotation Xrotation
									End Site
									{
										OFFSET 0.000000 0.000000 0.000000
									}
								}
							}
						}
					}
				}
				JOINT RightShoulder
				{
					OFFSET 0.000000 0.000000 0.000000
					CHANNELS 3 Zrotation Yrotation Xrotation
					JOINT RightArm
					{
						OFFSET -3.136600 1.374050 -0.404650
						CHANNELS 3 Zrotation Yrotation Xrotation
						JOINT RightForeArm
						{
							OFFSET -5.241900 -0.000000 -0.000000
							CHANNELS 3 Zrotation Yrotation Xrotation
							JOINT RightHand
							{
								OFFSET -3.444170 -0.000000 -0.000000
								CHANNELS 3 Zrotation Yrotation Xrotation
								JOINT RightFingerBase
								{
									OFFSET 0.000000 0.000000 0.000000
									CHANNELS 3 Zrotation Yrotation Xrotation
									JOINT RightHandIndex1
									{
										OFFSET -0.622530 -0.000000 -0.000000
										CHANNELS 3 Zrotation Yrotation Xrotation
										End Site
										{
											OFFSET 0.000000 0.000000 0.000000
										}
									}
								}
								JOINT RThumb
								{
									OFFSET 0.000000 0.000000 0.000000
									CHANNELS 3 Zrotation Yrotation Xrotation
									End Site
									{
										OFFSET 0.000000 0.000000 0.000000
									}
								}
							}
						}
					}
				}
			}
		}
	}
}
MOTION
Frames: 4
Frame Time: 0.008333
26.999099 14.912538 6.933679 -175.728087 -20.647666 -173.955077 3.856534 -7.697626 -10.180126 -1.708432 -13.359647 -34.074126 4.061663 21.182378 62.598219 9.298058 1.339654 0.766632 10.457994 -0.885944 -26.489913 12.392017 19.643698 -10.410493 -20.077294 -28.610890 -7.138655 -5.010973 -18.749041 36.958715 -2.667837 -2.024945 -13.367628 -15.660663 9.355217 -34.424662 -12.024183 -0.380336 27.224183 4.788844 -3.337018 -7.596587 6.392730 -1.554500 -5.067456 -0.850338 2.682623 -3.855465 11.289614 1.581001 11.295392 -20.422704 19.002135 -0.567556 15.965009 -12.761080 3.337836 -97.697026 -47.693041 58.265994 114.091062 -73.840795 -65.607041 -9.103068 -8.813468 2.103974 -0.000000 -0.000001 -0.000000 0.000000 0.000000 0.000000 0.000000 0.000000 0.000000 -11.929923 -2.293524 4.665573 78.224637 -3.016520 -3.889337 3.484197 68.603443 12.323063 17.681116 2.389066 1.000634 0.000000 0.000000 0.000000 0.000000 -0.000000 0.000000 0.000000 0.000000 0.000000 
27.169820 14.867733 6.919024 -175.673705 -21.239794 -173.886619 4.066539 -7.653099 -10.326447 -1.686171 -13.292446 -34.154359 4.671677 21.969711 62.786896 10.051627 2.292437 0.603900 9.925303 0.427269 -27.339224 13.066880 19.294466 -10.273188 -20.731415 -26.935841 -8.165177 -3.704596 -19.420256 39.814838 -6.416690 -4.785301 -13.402714 -15.340143 6.848360 -37.797285 -12.312721 -0.426090 27.331664 4.672358 -2.972542 -7.423234 6.628283 -1.165828 -4.583393 -1.124006 2.761787 -4.093531 11.353097 1.692600 11.264999 -21.646379 19.356707 -1.029561 16.042474 -12.085770 3.382889 -97.810445 -47.100226 56.989685 111.426329 -74.375045 -63.792544 -6.757917 -8.709909 1.857934 -0.000000 -0.000001 -0.000000 0.000000 -0.000000 0.000000 -0.000000 0.000000 0.000000 -12.479123 -2.056867 4.714460 77.797723 -1.607801 -3.504125 5.161872 66.387779 13.248636 17.742487 2.808584 1.130218 0.000000 -0.000000 0.000000 0.000000 0.000000 -0.000000 0.000000 -0.000000 -0.000000 
27.328529 14.825511 6.905480 -175.491831 -21.805107 -173.791541 4.369988 -7.724214 -10.546967 -1.801156 -12.926664 -34.261450 5.197003 22.429876 63.085235 10.622022 3.466201 0.353513 10.895933 -0.634113 -27.885757 13.240208 19.281507 -10.211618 -20.861739 -25.857410 -9.093070 -1.391177 -19.181182 42.381913 -10.045663 -8.495981 -13.062260 -17.733798 7.361719 -42.468721 -12.477301 -0.530125 27.418194 4.533030 -2.484444 -7.261155 5.998356 -0.535272 -3.885819 -0.585338 2.924487 -4.583985 11.422066 1.771442 11.209249 -21.302292 19.656672 -1.786711 17.009625 -11.673240 3.292764 -97.999644 -46.542266 54.867353 109.270313 -75.677204 -65.986679 -5.599759 -6.487213 1.323606 -0.000000 -0.000001 -0.000000 0.000000 0.000000 0.000000 0.000000 -0.000000 -0.000000 -12.176695 -2.419352 4.975267 77.304604 0.292773 -2.922782 6.547885 63.954545 13.656798 17.524454 3.181684 1.233161 0.000000 -0.000000 0.000000 0.000000 -0.000000 0.000000 0.000000 -0.000000 0.000000 
27.474625 14.794429 6.888739 -175.473726 -21.870264 -173.568556 4.298099 -7.454160 -10.567355 -1.807936 -12.328145 -34.591248 6.673454 23.110418 63.404792 10.944137 3.711804 0.221776 8.969868 2.018783 -27.713079 13.964446 18.336130 -9.907760 -20.545418 -26.245727 -12.071854 -4.353453 -20.808534 45.218181 -8.797322 -5.125600 -12.089219 -15.749090 6.459246 -39.457929 -12.865944 -0.422672 27.353517 4.423596 -1.877179 -7.130585 5.789380 0.207332 -4.012643 -0.464157 2.915146 -4.241323 11.491396 1.718631 11.200625 -21.788949 19.806728 -1.681885 17.099191 -11.746658 3.404041 -97.791856 -45.410858 52.148435 106.172849 -77.131316 -66.645645 -3.388845 -4.955034 0.898289 -0.000000 -0.000001 -0.000000 -0.000000 -0.000000 0.000000 0.000000 0.000000 0.000000 -12.228436 -1.988205 4.692434 76.633516 0.736059 -2.405793 7.582008 61.595446 13.538636 15.927990 2.578438 0.986626 -0.000000 0.000000 0.000000 0.000000 0.000000 -0.000000 0.000000 0.000000 0.000000 
